# xmcd
# 
# Track frame offsets:
#     150
#     16212
#     35632
#     51865
#     72680
#     90425
#     105642
#     127820
#     146977
#     169925
#     186345
# 
# Disc length: 2746
# 
# Revision: 11
# Processed by: cddbd v1.5.2PL0 Copyright (c) Steve Scherf et al.
# Submitted via: fre:ac v1.0.31
# 
DISCID=9d0ab80b
DTITLE=Queensrÿche - Rage for Order
DYEAR=1986
DGENRE=Progressive Hard Rock
TTITLE0=Walk in the Shadows
TTITLE1=I Dream in Infra Red
TTITLE2=The Whisper
TTITLE3=Gonna Get Close to You
TTITLE4=The Killing Words
TTITLE5=Surgical Strike
TTITLE6=Neue Regel
TTITLE7=Chemical Youth (We Are Rebellion)
TTITLE8=London
TTITLE9=Screaming in Digital
TTITLE10=I Will Remember
EXTD=
EXTT0=
EXTT1=
EXTT2=
EXTT3=
EXTT4=
EXTT5=
EXTT6=
EXTT7=
EXTT8=
EXTT9=
EXTT10=
PLAYORDER=
